<svg xmlns="http://www.w3.org/2000/svg" width="36" height="24" viewBox="0 0 36 24" role="img" aria-label="Saudi Arabia flag">
  <rect width="36" height="24" fill="#006c35"/>
  <path fill="#fff" d="M9 15.4h18v1.4H9z"/>
  <path fill="#fff" d="M23.9 16.8c1.5 0 2.4-.5 3.1-1.4H9c.7.9 1.6 1.4 3.1 1.4z"/>
  <g fill="#fff">
    <rect x="10.4" y="7" width="1.1" height="4.5" rx=".5"/>
    <rect x="12.4" y="8.4" width="1.1" height="3.1" rx=".5"/>
    <rect x="14.3" y="7.6" width="1.1" height="3.9" rx=".5"/>
    <rect x="16.3" y="8.1" width="1.1" height="3.4" rx=".5"/>
    <rect x="18.2" y="7.2" width="1.1" height="4.3" rx=".5"/>
    <rect x="20.2" y="8.5" width="1.1" height="3" rx=".5"/>
    <rect x="22.1" y="7.7" width="1.1" height="3.8" rx=".5"/>
    <rect x="24.1" y="8.2" width="1.1" height="3.3" rx=".5"/>
    <path d="M10.4 12.2h14.8v1.1H10.4z"/>
  </g>
</svg>
